<svg version="1.2" xmlns="http://www.w3.org/2000/svg" viewBox="0 0 1475 983" width="1475" height="983">
	<style>
		.s0 { fill: #003087 } 
		.s1 { fill: #b22234 } 
		.s2 { fill: #ffffff } 
	</style>
	<g id="Background">
		<path id="blue" fill-rule="evenodd" class="s0" d="m600 0v983h-600v-983z"/>
		<path id="red" fill-rule="evenodd" class="s1" d="m1475 0v983h-876v-983z"/>
		<path id="star" class="s2" d="m599.33 199.7c-0.61 1.54-13.12 36.55-27.8 77.8-14.69 41.25-27 75.49-27.36 76.08-0.43 0.69-28.19-12.01-75.67-34.6-41.25-19.62-75.13-35.41-75.29-35.08-0.17 0.33 15.7 34.35 35.25 75.6 19.55 41.25 35.11 75.22 34.58 75.5-0.52 0.27-35.85 12.87-78.49 28-42.64 15.12-77.55 27.72-77.57 28-0.01 0.27 35.2 13.05 78.25 28.4 43.05 15.34 78.39 27.94 78.54 28 0.15 0.05-15.73 33.85-35.28 75.1-19.55 41.25-35.42 75.31-35.27 75.69 0.15 0.38 34.03-15.3 75.28-34.84 41.25-19.54 75.3-35.15 75.66-34.69 0.36 0.46 12.88 35.26 27.83 77.34 14.94 42.07 27.53 77.17 27.96 78 0.58 1.09 1.21 0.27 2.31-3 0.84-2.48 13.3-37.58 27.7-78 14.4-40.43 26.49-73.88 26.86-74.34 0.38-0.46 33.98 14.95 74.68 34.26 40.7 19.3 74.56 35.09 75.25 35.09 0.69-0.01 1.06-0.57 0.83-1.26-0.24-0.69-16.21-34.44-35.5-75-19.3-40.56-34.97-73.92-34.83-74.12 0.14-0.2 35.47-12.91 78.52-28.25 43.05-15.33 78.25-28.11 78.23-28.38-0.01-0.28-34.92-12.88-77.57-28-42.64-15.13-77.98-27.73-78.52-28-0.54-0.28 15.02-34.25 34.58-75.5 19.56-41.25 35.44-75.27 35.29-75.6-0.15-0.34-33.81 15.33-74.78 34.81-40.98 19.48-74.87 35.5-75.32 35.6-0.45 0.11-13.41-35.14-28.8-78.31-15.39-43.18-28.09-78.64-28.21-78.8-0.13-0.17-0.73 0.96-1.34 2.5z"/>
	</g>
</svg>